<svg width="196" height="196" viewBox="0 0 196 196" fill="none" xmlns="http://www.w3.org/2000/svg">
<g clip-path="url(#clip0)">
<g filter="url(#filter0_d)">
<circle cx="98" cy="98" r="90" transform="rotate(30 98 98)" fill="#D74629" fill-opacity="0.83"/>
</g>
<mask id="mask0" mask-type="alpha" maskUnits="userSpaceOnUse" x="24" y="26" width="148" height="145">
<path d="M90.4058 115.733C88.1464 119.646 89.4872 124.65 93.4005 126.909L104.029 133.046C107.942 135.305 112.946 133.964 115.206 130.051L135.66 94.6227L135.632 94.6066C143.878 79.3273 144.144 66.4546 137.578 62.6638C131.013 58.873 119.998 65.5404 110.888 80.3207L110.86 80.3046L90.4058 115.733Z" fill="white"/>
<path d="M88.2869 135.767C85.4317 140.712 85.5466 146.32 86.1013 149.635C86.2505 150.526 87.1512 151.046 87.9977 150.73C91.1458 149.553 96.0602 146.848 98.9154 141.903C102.029 136.509 100.003 135.381 97.3763 133.919C97.1444 133.79 96.9074 133.658 96.6693 133.52C96.4312 133.383 96.1989 133.244 95.9711 133.108C93.3918 131.564 91.4008 130.373 88.2869 135.767Z" fill="white"/>
<path d="M139.577 111.18C139.471 107.051 134.01 105.663 131.945 109.24L118.748 132.096C117.619 134.053 118.289 136.555 120.246 137.685L130.874 143.821C132.831 144.951 135.333 144.28 136.463 142.324L139.959 136.268C140.347 135.595 140.536 134.826 140.503 134.05L139.636 113.451L139.577 111.18Z" fill="white"/>
<path d="M86.8629 113.687C84.6036 117.601 79.5997 118.942 75.6864 116.682L65.0579 110.546C61.1446 108.286 59.8038 103.283 62.0631 99.3692L82.5177 63.9409L82.5457 63.9571C91.6552 49.1767 102.67 42.5094 109.236 46.3002C115.802 50.091 115.535 62.9637 107.289 78.2429L107.317 78.2591L86.8629 113.687Z" fill="white"/>
<path d="M70.5727 125.539C67.7175 130.485 62.8032 133.189 59.655 134.366C58.8085 134.683 57.9078 134.163 57.7586 133.271C57.2039 129.956 57.089 124.348 59.9442 119.403C63.0581 114.009 65.0487 115.2 67.6281 116.744C67.8558 116.88 68.0885 117.019 68.3266 117.157C68.5648 117.294 68.8013 117.426 69.0332 117.555C71.6595 119.017 73.6866 120.146 70.5727 125.539Z" fill="white"/>
<path d="M66.2203 68.8273C69.8489 66.8552 73.7815 70.8906 71.7166 74.4671L58.5203 97.3238C57.3906 99.2804 54.8887 99.9508 52.932 98.8211L42.3035 92.6848C40.3469 91.5551 39.6765 89.0532 40.8061 87.0965L44.3025 81.0405C44.6908 80.368 45.2625 79.8199 45.9508 79.4602L64.224 69.9123L66.2203 68.8273Z" fill="white"/>
</mask>
<g mask="url(#mask0)">
<rect x="57.7108" y="-12.217" width="180" height="82.653" transform="rotate(30 57.7108 -12.217)" fill="#E5E5E5"/>
<path d="M16.3843 59.3626L172.269 149.363L130.942 220.942L-24.9422 130.942L16.3843 59.3626Z" fill="black" fill-opacity="0.7"/>
</g>
</g>
<defs>
<filter id="filter0_d" x="-28.9423" y="-26.9423" width="253.885" height="253.885" filterUnits="userSpaceOnUse" color-interpolation-filters="sRGB">
<feFlood flood-opacity="0" result="BackgroundImageFix"/>
<feColorMatrix in="SourceAlpha" type="matrix" values="0 0 0 0 0 0 0 0 0 0 0 0 0 0 0 0 0 0 127 0"/>
<feOffset dy="2"/>
<feGaussianBlur stdDeviation="2"/>
<feColorMatrix type="matrix" values="0 0 0 0 0 0 0 0 0 0 0 0 0 0 0 0 0 0 0.15 0"/>
<feBlend mode="normal" in2="BackgroundImageFix" result="effect1_dropShadow"/>
<feBlend mode="normal" in="SourceGraphic" in2="effect1_dropShadow" result="shape"/>
</filter>
<clipPath id="clip0">
<rect width="196" height="196" fill="white"/>
</clipPath>
</defs>
</svg>
