<svg width="52" height="52" viewBox="0 0 52 52" fill="none" xmlns="http://www.w3.org/2000/svg">
<g filter="url(#filter0_d)">
<rect x="4" y="2" width="44" height="44" rx="22" fill="#D74629" fill-opacity="0.83"/>
<mask id="mask0" mask-type="alpha" maskUnits="userSpaceOnUse" x="8" y="6" width="36" height="36">
<path fill-rule="evenodd" clip-rule="evenodd" d="M23.2747 28.1358L27.997 19.9566L28.2747 19.4755L28.2679 19.4716C30.2834 15.7367 30.3486 12.59 28.7436 11.6634C27.1386 10.7367 24.4462 12.3665 22.2194 15.9795L22.2125 15.9755L21.9348 16.4566L17.2125 24.6358C16.6603 25.5924 16.988 26.8156 17.9446 27.3678L20.5427 28.8678C21.4993 29.4201 22.7224 29.0924 23.2747 28.1358ZM16.6239 33.1906C17.3934 32.9029 18.5947 32.2418 19.2927 31.0329C20.0538 29.7145 19.5584 29.4387 18.9164 29.0813L18.9163 29.0812L18.9163 29.0812C18.8596 29.0496 18.8018 29.0175 18.7436 28.9839C18.6855 28.9503 18.6287 28.9163 18.573 28.883L18.573 28.883L18.5729 28.8829C17.9424 28.5056 17.4558 28.2145 16.6946 29.5329C15.9967 30.7418 16.0247 32.1127 16.1603 32.923C16.1968 33.1409 16.417 33.268 16.6239 33.1906ZM19.5723 18.5486C20.077 17.6743 19.1157 16.6879 18.2287 17.17L17.7407 17.4352L13.274 19.7691C13.1057 19.8571 12.966 19.991 12.8711 20.1554L12.0164 21.6358C11.7402 22.1141 11.9041 22.7257 12.3824 23.0018L14.9805 24.5018C15.4588 24.778 16.0704 24.6141 16.3465 24.1358L19.5723 18.5486ZM24.1407 28.6358L28.863 20.4566L29.1407 19.9755L29.1476 19.9795C31.3744 16.3665 34.0668 14.7367 35.6718 15.6634C37.2768 16.59 37.2116 19.7367 35.1961 23.4716L35.2029 23.4755L34.9252 23.9566L30.2029 32.1358C29.6506 33.0924 28.4275 33.4201 27.4709 32.8678L24.8728 31.3678C23.9162 30.8156 23.5885 29.5924 24.1407 28.6358ZM23.0885 36.923C22.9529 36.1127 22.9249 34.7418 23.6228 33.5329C24.384 32.2145 24.8706 32.5057 25.5011 32.8829L25.5012 32.883L25.5013 32.883C25.5569 32.9163 25.6137 32.9503 25.6718 32.9839C25.73 33.0175 25.7878 33.0496 25.8445 33.0812L25.8446 33.0812L25.8446 33.0813C26.4866 33.4387 26.9821 33.7145 26.2209 35.0329C25.5229 36.2418 24.3217 36.9029 23.5521 37.1906C23.3452 37.268 23.125 37.1409 23.0885 36.923ZM34.2947 27.0486C34.7995 26.1743 36.1344 26.5137 36.1604 27.5228L36.1747 28.0781L36.3868 33.1134C36.3948 33.303 36.3487 33.491 36.2538 33.6554L35.3991 35.1358C35.1229 35.6141 34.5113 35.778 34.033 35.5018L31.435 34.0018C30.9567 33.7257 30.7928 33.1141 31.0689 32.6358L34.2947 27.0486Z" fill="white"/>
</mask>
<g mask="url(#mask0)">
<path d="M4.99998 14.0526C11.0751 3.53012 24.5301 -0.0751302 35.0525 6C45.575 12.0751 49.1802 25.5301 43.1051 36.0526C24.0525 25.0526 34.575 31.1277 24.0525 25.0526C13.5301 18.9774 24.0525 25.0526 4.99998 14.0526Z" fill="#E5E5E5"/>
<path d="M43.1051 36.0526C37.03 46.575 23.575 50.1803 13.0525 44.1051C2.53009 38.03 -1.07516 24.575 4.99997 14.0526C24.0525 25.0526 13.5301 18.9774 24.0525 25.0526C34.575 31.1277 24.0525 25.0526 43.1051 36.0526Z" fill="black" fill-opacity="0.7"/>
</g>
</g>
<defs>
<filter id="filter0_d" x="0" y="0" width="52" height="52" filterUnits="userSpaceOnUse" color-interpolation-filters="sRGB">
<feFlood flood-opacity="0" result="BackgroundImageFix"/>
<feColorMatrix in="SourceAlpha" type="matrix" values="0 0 0 0 0 0 0 0 0 0 0 0 0 0 0 0 0 0 127 0"/>
<feOffset dy="2"/>
<feGaussianBlur stdDeviation="2"/>
<feColorMatrix type="matrix" values="0 0 0 0 0 0 0 0 0 0 0 0 0 0 0 0 0 0 0.15 0"/>
<feBlend mode="normal" in2="BackgroundImageFix" result="effect1_dropShadow"/>
<feBlend mode="normal" in="SourceGraphic" in2="effect1_dropShadow" result="shape"/>
</filter>
</defs>
</svg>
